# xmcd
#
# Track frame offsets:
#	150
#	26370
#	46357
#	69795
#	87965
#	111507
#	133587
#	158072
#	164395
#	178927
#	196472
#	213485
#	233095
#	257550
#
# Disc length: 3601 seconds
#
# Revision: 0
# Processed by: cddbd v1.5.1PL0 Copyright (c) Steve Scherf et al.
# Submitted via: EasyCDDAExtractor 5.0.5.1
#
DISCID=bd0e0f0e
DTITLE=HOTEL VIETNAM - Blue Asia
DYEAR=1900
DGENRE=
TTITLE0=Pray
TTITLE1=Mot Khuc Tam Tinh
TTITLE2=Slow Boat to Japan
TTITLE3=Rung Xua Da Khep v.1
TTITLE4=La Yeu Cua Tung Yeu - Samba de Jeneiro
TTITLE5=Saigon Cyclo Blues
TTITLE6=Em Ve Voi Hue
TTITLE7=Champa
TTITLE8=Mekong Birds
TTITLE9=La Yeu Cua Tung Yeu - Memphis Jam
TTITLE10=Blue Requiem
TTITLE11=Rung Xua Da Khep v.2
TTITLE12=Hoian
TTITLE13=Jade
EXTD=
EXTT0=
EXTT1=
EXTT2=
EXTT3=
EXTT4=
EXTT5=
EXTT6=
EXTT7=
EXTT8=
EXTT9=
EXTT10=
EXTT11=
EXTT12=
EXTT13=
PLAYORDER=
